<svg width="231" height="40" viewBox="0 0 231 40" fill="none" xmlns="http://www.w3.org/2000/svg">
<rect width="231" height="40" rx="20" fill="#625B4F"/>
<path d="M114.051 16.18C114.317 16.0067 114.484 16.0267 114.551 16.24C114.604 16.3867 114.671 17.9 114.751 20.78C114.844 23.66 114.877 25.1533 114.851 25.26C114.784 25.3933 114.631 25.46 114.391 25.46C114.204 25.46 114.091 25.4 114.051 25.28C114.024 25.16 114.004 24.7867 113.991 24.16C113.964 22.2533 113.924 20.94 113.871 20.22C113.871 20.18 113.811 20.16 113.691 20.16C113.584 20.1467 113.444 20.1467 113.271 20.16C113.097 20.1733 112.904 20.2 112.691 20.24C112.491 20.2667 112.284 20.3067 112.071 20.36C111.857 20.4133 111.664 20.4667 111.491 20.52C110.757 20.7733 110.391 20.72 110.391 20.36C110.391 20.2267 110.537 20.0933 110.831 19.96C111.124 19.8267 111.691 19.64 112.531 19.4L113.771 19.06L113.831 17.66C113.857 16.74 113.931 16.2467 114.051 16.18ZM107.191 17.52C107.871 17.3067 108.304 17.1933 108.491 17.18C108.691 17.1533 108.824 17.22 108.891 17.38C108.957 17.5667 108.831 18.1267 108.511 19.06L108.031 20.52L109.131 21.66C109.877 22.4333 110.251 22.9467 110.251 23.2C110.251 23.56 110.077 23.62 109.731 23.38C109.531 23.2333 109.231 22.9533 108.831 22.54C108.577 22.2733 108.331 22.0467 108.091 21.86C107.864 21.66 107.724 21.5667 107.671 21.58C107.564 21.62 107.404 21.9467 107.191 22.56C107.071 22.92 106.964 23.1667 106.871 23.3C106.777 23.42 106.671 23.48 106.551 23.48C106.111 23.48 106.111 23 106.551 22.04C106.844 21.44 107.117 20.7733 107.371 20.04C107.624 19.3067 107.751 18.8267 107.751 18.6C107.751 18.4 107.671 18.3 107.511 18.3C107.337 18.3 106.837 18.44 106.011 18.72C105.584 18.8667 105.291 18.9333 105.131 18.92C104.984 18.9067 104.911 18.8 104.911 18.6C104.911 18.4667 105.077 18.32 105.411 18.16C105.757 18 106.351 17.7867 107.191 17.52ZM123.328 17.6C123.354 15.6933 123.408 14.6733 123.488 14.54C123.528 14.4867 123.588 14.46 123.668 14.46C123.854 14.46 123.981 14.56 124.048 14.76C124.114 14.96 124.148 15.38 124.148 16.02C124.148 16.7267 124.181 17.2 124.248 17.44C124.301 17.6133 124.368 17.7133 124.448 17.74C124.541 17.7533 124.774 17.7267 125.148 17.66C126.388 17.4867 127.028 17.4933 127.068 17.68C127.134 17.8533 127.068 18 126.868 18.12C126.668 18.24 126.281 18.3533 125.708 18.46C124.921 18.62 124.468 18.76 124.348 18.88C124.214 19 124.154 19.4267 124.168 20.16C124.181 20.88 124.134 21.2933 124.028 21.4C123.894 21.5467 123.734 21.58 123.548 21.5C123.374 21.42 123.294 21.2867 123.308 21.1C123.308 21.0733 123.314 19.9067 123.328 17.6ZM117.768 15.72C118.394 15.64 118.994 15.5933 119.568 15.58C119.861 15.5667 120.041 15.58 120.108 15.62C120.188 15.6467 120.228 15.7467 120.228 15.92C120.228 16.1067 120.154 16.32 120.008 16.56C119.874 16.8 119.594 17.2 119.168 17.76C118.821 18.2267 118.648 18.5333 118.648 18.68C118.648 18.8533 118.954 19.12 119.568 19.48C120.181 19.8533 120.541 20.0933 120.648 20.2C120.754 20.2933 120.781 20.4067 120.728 20.54C120.594 20.8867 120.061 20.7733 119.128 20.2C118.514 19.8267 118.168 19.64 118.088 19.64C117.994 19.64 117.788 19.96 117.468 20.6C117.161 21.2267 116.914 21.54 116.728 21.54C116.541 21.54 116.414 21.4733 116.348 21.34C116.321 21.2067 116.721 20.4067 117.548 18.94C118.388 17.4733 118.808 16.6933 118.808 16.6C118.808 16.48 118.008 16.5333 116.408 16.76C116.101 16.8 115.901 16.8133 115.808 16.8C115.714 16.7867 115.668 16.7267 115.668 16.62C115.668 16.4867 115.748 16.3667 115.908 16.26C116.081 16.14 116.328 16.0333 116.648 15.94C116.968 15.8467 117.341 15.7733 117.768 15.72ZM121.668 23.34C122.201 23.0733 122.561 22.94 122.748 22.94C123.001 22.94 123.274 23.0133 123.568 23.16C123.874 23.3067 124.088 23.4667 124.208 23.64C124.461 24.04 124.528 24.58 124.408 25.26C124.301 25.94 124.068 26.4467 123.708 26.78C123.561 26.9 123.401 26.9733 123.228 27C123.054 27.0267 122.728 27.0267 122.248 27C121.848 26.9733 121.568 26.94 121.408 26.9C121.261 26.8733 121.134 26.82 121.028 26.74C120.921 26.6733 120.781 26.5467 120.608 26.36C120.394 26.0933 120.261 25.8933 120.208 25.76C120.168 25.6267 120.174 25.4333 120.228 25.18C120.268 24.8867 120.348 24.6333 120.468 24.42C120.588 24.1933 120.741 23.9933 120.928 23.82C121.128 23.6467 121.374 23.4867 121.668 23.34ZM123.368 24.06C123.074 23.74 122.728 23.6467 122.328 23.78C121.928 23.9133 121.588 24.22 121.308 24.7C121.148 24.9933 121.061 25.1867 121.048 25.28C121.048 25.3733 121.108 25.5133 121.228 25.7C121.361 25.9 121.594 26.06 121.928 26.18C122.261 26.3 122.554 26.3333 122.808 26.28C122.994 26.2267 123.181 26.0333 123.368 25.7C123.568 25.3667 123.668 25.06 123.668 24.78C123.668 24.5 123.568 24.26 123.368 24.06Z" fill="#F4F0EA"/>
</svg>
